<svg xmlns="http://www.w3.org/2000/svg" version="1.1" xmlns:xlink="http://www.w3.org/1999/xlink" xmlns:svgjs="http://svgjs.dev/svgjs" width="2000" height="409" viewBox="0 0 2000 409"><g transform="matrix(1,0,0,1,-1.2121212121212466,0.9318791623035452)"><svg viewBox="0 0 396 81" data-background-color="#1b15e4" preserveAspectRatio="xMidYMid meet" height="409" width="2000" xmlns="http://www.w3.org/2000/svg" xmlns:xlink="http://www.w3.org/1999/xlink"><g id="tight-bounds" transform="matrix(1,0,0,1,0.2400000000000091,-0.1845530859329756)"><svg viewBox="0 0 395.52 81.36910617186594" height="81.36910617186594" width="395.52"><g><svg viewBox="0 0 395.52 81.36910617186594" height="81.36910617186594" width="395.52"><g><svg viewBox="0 0 544.4301334323503 112.00392731194391" height="81.36910617186594" width="395.52"><g></g><g transform="matrix(1,0,0,1,148.91013343235036,15.479558695066054)"><svg viewBox="0 0 395.52 81.0448099218118" height="81.0448099218118" width="395.52"><g id="textblocktransform"><svg viewBox="0 0 395.52 81.0448099218118" height="81.0448099218118" width="395.52" id="textblock"><g><svg viewBox="0 0 395.52 81.0448099218118" height="81.0448099218118" width="395.52"><g transform="matrix(1,0,0,1,0,0)"><svg width="395.52" viewBox="1.15 -37.5 186.19 38" height="81.0448099218118" data-palette-color="url(#e2da2a94-a266-4347-8546-8e3777b1f4db)"><g class="wordmark-text-0" data-fill-palette-color="primary" id="text-0"></g></svg></g></svg></g></svg></g></svg></g><g><svg viewBox="0 0 103.33595974115424 112.00392731194391" height="112.00392731194391" width="103.33595974115424"><g><svg xmlns="http://www.w3.org/2000/svg" xmlns:xlink="http://www.w3.org/1999/xlink" version="1.1" x="0" y="0" viewBox="0.00010711665728526006 0.00002196566346038785 83.0348928833427 89.99997803433654" enable-background="new 0 0 83.035 90" xml:space="preserve" width="103.33595974115424" height="112.00392731194391" class="icon-icon-0" data-fill-palette-color="accent" id="icon-0"></svg></g></svg></g></svg></g></svg></g><defs></defs><mask id="918fe33f-5bd7-4346-b910-4403b4ce207d"><g id="SvgjsG1459"><svg viewBox="0 0 395.52 81.36910617186594" height="81.36910617186594" width="395.52"><g><svg viewBox="0 0 395.52 81.36910617186594" height="81.36910617186594" width="395.52"><g><svg viewBox="0 0 544.4301334323503 112.00392731194391" height="81.36910617186594" width="395.52"><g><rect width="7.308704596992828" height="81.45003397142085" x="122.46869428825589" y="15.27694667026153" fill="white" opacity="1" stroke-width="0" stroke="transparent" fill-opacity="1" class="rect-qz-0" rx="1%" id="SvgjsRect1458" data-palette-color="url(#e2da2a94-a266-4347-8546-8e3777b1f4db)"></rect></g><g transform="matrix(1,0,0,1,148.91013343235036,15.479558695066054)"><svg viewBox="0 0 395.52 81.0448099218118" height="81.0448099218118" width="395.52"><g id="SvgjsG1457"><svg viewBox="0 0 395.52 81.0448099218118" height="81.0448099218118" width="395.52" id="SvgjsSvg1456"><g><svg viewBox="0 0 395.52 81.0448099218118" height="81.0448099218118" width="395.52"><g transform="matrix(1,0,0,1,0,0)"><svg width="395.52" viewBox="1.15 -37.5 186.19 38" height="81.0448099218118" data-palette-color="url(#e2da2a94-a266-4347-8546-8e3777b1f4db)"><g class="wordmark-text-0" data-fill-palette-color="primary" id="SvgjsG1455"><path d="M29.2-19.65L29.2-19.65Q29.2-9.95 24.98-4.73 20.75 0.5 13.25 0.5L13.25 0.5Q8 0.5 5.03-1.5 2.05-3.5 2.05-6.7L2.05-6.7Q2.05-8.7 3.28-10.18 4.5-11.65 6.53-11.65 8.55-11.65 9.73-10.58 10.9-9.5 10.9-8.03 10.9-6.55 10.5-5.45L10.5-5.45 9-5.45Q8.65-4.7 8.65-3.53 8.65-2.35 9.73-1.43 10.8-0.5 12.9-0.5L12.9-0.5Q16.25-0.5 17.78-4.15 19.3-7.8 19.35-16.85L19.35-16.85Q16.75-12.8 11.45-12.8L11.45-12.8Q6.95-12.8 4.05-15.7 1.15-18.6 1.15-23.65L1.15-23.65Q1.15-29.65 5.13-32.6 9.1-35.55 15.3-35.55L15.3-35.55Q29.2-35.55 29.2-19.65ZM14.35-14.45Q16.05-14.45 17.23-15.73 18.4-17 18.82-18.73 19.25-20.45 19.25-23.23 19.25-26 19.23-27.08 19.2-28.15 19.1-29.63 19-31.1 18.75-31.78 18.5-32.45 18.1-33.2L18.1-33.2Q17.35-34.5 15.35-34.5L15.35-34.5Q13.1-34.5 12-32.7L12-32.7Q11.15-31.25 11-27.7L11-27.7Q10.95-26.45 10.95-24.33 10.95-22.2 10.98-21.05 11-19.9 11.1-18.63 11.2-17.35 11.43-16.7 11.65-16.05 12-15.45L12-15.45Q12.65-14.45 14.35-14.45ZM33.05 0.5L32.45 0.5 32.45-8.45 33.05-8.45Q34.35-4.1 36.55-2.35 38.75-0.6 42.05-0.6L42.05-0.6Q47.15-0.6 47.15-3.85L47.15-3.85Q47.15-5.25 45.9-5.95L45.9-5.95Q43.95-7.05 40.9-7.65L40.9-7.65Q37.5-8.55 35.2-10.05L35.2-10.05Q32.45-11.85 32.45-15.75 32.45-19.65 34.85-21.98 37.25-24.3 41.25-24.3L41.25-24.3Q43.7-24.3 46.3-23.15L46.3-23.15Q47.25-22.75 47.75-22.75 48.25-22.75 48.6-23.1 48.95-23.45 49.45-24.4L49.45-24.4 50-24.4 50-16.75 49.4-16.75Q46.85-23.25 41.5-23.25L41.5-23.25Q39.15-23.25 38-22.43 36.85-21.6 36.85-20.35L36.85-20.35Q36.85-19.6 37.2-19.18 37.55-18.75 37.75-18.55 37.95-18.35 38.4-18.13 38.85-17.9 39.15-17.78 39.45-17.65 40.07-17.45 40.7-17.25 41-17.2L41-17.2Q44.4-16.35 45.9-15.73 47.4-15.1 48.75-14.2L48.75-14.2Q51.5-12.3 51.5-8.08 51.5-3.85 49-1.68 46.5 0.5 42.15 0.5L42.15 0.5Q39.05 0.5 36.15-0.95L36.15-0.95Q35.55-1.35 35.2-1.35L35.2-1.35Q34.1-1.35 33.05 0.5L33.05 0.5ZM66.15 0.5Q59.7 0.5 56.47-2.83 53.25-6.15 53.25-12.08 53.25-18 56.87-21.15 60.5-24.3 66.09-24.3L66.09-24.3Q77.45-24.3 77-12.9L77-12.9 62.9-12.9 62.9-10.95Q62.9-6.05 64.15-3.55 65.4-1.05 68.5-1.05L68.5-1.05Q74.3-1.05 76.09-7.25L76.09-7.25 77-7.1Q76.05-3.5 73.57-1.5 71.09 0.5 66.15 0.5L66.15 0.5ZM62.95-16.35L62.95-13.9 68.09-13.9 68.09-16.35Q68.09-20.4 67.62-21.88 67.15-23.35 65.72-23.35 64.3-23.35 63.62-21.78 62.95-20.2 62.95-16.35L62.95-16.35ZM97.04-13.45Q97.04-18.6 96.54-20.38 96.04-22.15 94.59-22.15 93.14-22.15 91.99-20.35 90.84-18.55 90.84-15.4L90.84-15.4 90.84-6.1Q90.84-3.95 91.72-2.45 92.59-0.95 94.22-0.95 95.84-0.95 96.44-3.15 97.04-5.35 97.04-10.85L97.04-10.85 97.04-13.45ZM78.79-37.5L90.84-37.5 90.84-20Q92.74-24.3 97.34-24.3L97.34-24.3Q106.69-24.3 106.69-11.85L106.69-11.85Q106.69-5.5 104.12-2.5 101.54 0.5 96.39 0.5L96.39 0.5Q93.79 0.5 92.42-0.3 91.04-1.1 90.54-2.95L90.54-2.95 90.19 0 78.79 0 78.79-0.9 81.54-0.9 81.54-36.6 78.79-36.6 78.79-37.5ZM120.19-11.75L120.19-11.75 121.64-11.75 121.64-15.6Q121.64-20.35 121.12-21.98 120.59-23.6 119.09-23.6L119.09-23.6Q118.19-23.6 117.47-23.13 116.74-22.65 116.74-21.83 116.74-21 117.04-20.15L117.04-20.15 118.29-20.15Q118.69-19.1 118.69-17.63 118.69-16.15 117.44-15.08 116.19-14 114.29-14L114.29-14Q109.99-14 109.99-18.15L109.99-18.15Q109.99-24.3 120.44-24.3L120.44-24.3Q126.39-24.3 128.67-22.28 130.94-20.25 130.94-14.85L130.94-14.85 130.94-4.7Q130.94-2.1 132.39-2.1L132.39-2.1Q134.09-2.1 134.39-7.25L134.39-7.25 135.14-7.2Q134.94-2.8 133.49-1.15 132.04 0.5 128.74 0.5L128.74 0.5Q122.74 0.5 121.84-3.2L121.84-3.2Q121.19-1.3 119.89-0.4 118.59 0.5 116.09 0.5L116.09 0.5Q108.69 0.5 108.69-5.55L108.69-5.55Q108.69-9.1 111.52-10.43 114.34-11.75 120.19-11.75ZM118.19-5.6Q118.19-3 118.47-2.25 118.74-1.5 119.52-1.5 120.29-1.5 120.97-2.78 121.64-4.05 121.64-6.3L121.64-6.3 121.64-10.95 121.29-10.95Q118.19-10.95 118.19-6.4L118.19-6.4 118.19-5.6ZM152.34-22.4L152.34-22.4Q150.49-22.4 149.09-20 147.69-17.6 147.69-14.3L147.69-14.3 147.69-0.9 151.24-0.9 151.24 0 135.64 0 135.64-0.9 138.39-0.9 138.39-22.9 135.64-22.9 135.64-23.8 147.69-23.8 147.69-19Q148.34-21.55 150.19-22.93 152.04-24.3 154.39-24.3 156.74-24.3 158.21-22.98 159.69-21.65 159.69-19.23 159.69-16.8 158.59-15.5 157.49-14.2 155.21-14.2 152.94-14.2 151.86-15.7 150.79-17.2 151.59-19.85L151.59-19.85 153.39-19.85Q154.64-22.4 152.34-22.4ZM172.39-11.75L172.39-11.75 173.84-11.75 173.84-15.6Q173.84-20.35 173.31-21.98 172.79-23.6 171.29-23.6L171.29-23.6Q170.39-23.6 169.66-23.13 168.94-22.65 168.94-21.83 168.94-21 169.24-20.15L169.24-20.15 170.49-20.15Q170.89-19.1 170.89-17.63 170.89-16.15 169.64-15.08 168.39-14 166.49-14L166.49-14Q162.19-14 162.19-18.15L162.19-18.15Q162.19-24.3 172.64-24.3L172.64-24.3Q178.59-24.3 180.86-22.28 183.14-20.25 183.14-14.85L183.14-14.85 183.14-4.7Q183.14-2.1 184.59-2.1L184.59-2.1Q186.29-2.1 186.59-7.25L186.59-7.25 187.34-7.2Q187.14-2.8 185.69-1.15 184.24 0.5 180.94 0.5L180.94 0.5Q174.94 0.5 174.04-3.2L174.04-3.2Q173.39-1.3 172.09-0.4 170.79 0.5 168.29 0.5L168.29 0.5Q160.89 0.5 160.89-5.55L160.89-5.55Q160.89-9.1 163.71-10.43 166.54-11.75 172.39-11.75ZM170.39-5.6Q170.39-3 170.66-2.25 170.94-1.5 171.71-1.5 172.49-1.5 173.16-2.78 173.84-4.05 173.84-6.3L173.84-6.3 173.84-10.95 173.49-10.95Q170.39-10.95 170.39-6.4L170.39-6.4 170.39-5.6Z" fill="white"></path></g></svg></g></svg></g></svg></g></svg></g><g><svg viewBox="0 0 103.33595974115424 112.00392731194391" height="112.00392731194391" width="103.33595974115424"><g><svg xmlns="http://www.w3.org/2000/svg" xmlns:xlink="http://www.w3.org/1999/xlink" version="1.1" x="0" y="0" viewBox="0.00010711665728526006 0.00002196566346038785 83.0348928833427 89.99997803433654" enable-background="new 0 0 83.035 90" xml:space="preserve" width="103.33595974115424" height="112.00392731194391" class="icon-icon-0" data-fill-palette-color="accent" id="SvgjsSvg1454"><path d="M81.874 43.388H2.832c-0.643 0-1.163 0.608-1.163 1.358v43.897c0 0.75 0.52 1.357 1.163 1.357h79.042c0.641 0 1.161-0.607 1.161-1.357V44.746C83.035 43.996 82.515 43.388 81.874 43.388zM65.285 73.613H19.924c-1.625 0-2.945-1.316-2.945-2.943 0-1.625 1.321-2.942 2.945-2.942h45.361c1.626 0 2.943 1.317 2.943 2.942C68.229 72.297 66.911 73.613 65.285 73.613zM65.285 59.416H19.924c-1.626 0-2.943-1.317-2.943-2.943s1.317-2.944 2.943-2.944h45.361c1.624 0 2.943 1.318 2.943 2.944S66.909 59.416 65.285 59.416zM81.874 27.707H2.832c-0.643 0-1.163 0.52-1.163 1.162v10.075c0 0.642 0.52 1.161 1.163 1.161h79.042c0.641 0 1.161-0.52 1.161-1.161V28.868C83.035 28.226 82.515 27.707 81.874 27.707zM8.495 38.943l10.073-10.075h14.248L22.743 38.943H8.495zM30.81 38.943l10.075-10.075H55.13L45.056 38.943H30.81zM54.519 38.943l10.075-10.075H78.84L68.767 38.943H54.519zM80.147 0.961c-0.11-0.632-0.714-1.055-1.346-0.943L0.961 13.743c-0.631 0.111-1.052 0.715-0.944 1.346l1.751 9.921c0.112 0.632 0.714 1.055 1.347 0.944l77.839-13.726c0.631-0.112 1.054-0.715 0.944-1.347L80.147 0.961zM2.912 24.809l5.578-0.983 8.171-11.67L38.467 8.31l-7.775 1.371-8.172 11.67 7.945-1.402L38.636 8.28l37.38-6.591-8.171 11.67 12.906-2.275L2.912 24.809zM44.494 17.476l9.32-1.643 8.171-11.67-9.318 1.644L44.494 17.476z" fill="black"></path></svg></g></svg></g></svg></g></svg></g><defs><mask></mask></defs></svg><rect width="395.52" height="81.36910617186594" fill="black" stroke="none" visibility="hidden"></rect></g></mask><linearGradient x1="0" x2="1" y1="0.5" y2="0.5" id="e2da2a94-a266-4347-8546-8e3777b1f4db"><stop stop-color="#ffa62e" offset="0"></stop><stop stop-color="#f71b3d" offset="1"></stop></linearGradient><rect width="395.52" height="81.36910617186594" fill="url(#e2da2a94-a266-4347-8546-8e3777b1f4db)" mask="url(#918fe33f-5bd7-4346-b910-4403b4ce207d)" data-fill-palette-color="primary"></rect><mask id="07dac723-17e1-4387-8f3b-7e0e82579cc3"><g id="SvgjsG1470"><svg viewBox="0 0 395.52 81.36910617186594" height="81.36910617186594" width="395.52"><g><svg viewBox="0 0 395.52 81.36910617186594" height="81.36910617186594" width="395.52"><g><svg viewBox="0 0 544.4301334323503 112.00392731194391" height="81.36910617186594" width="395.52"><g></g><g transform="matrix(1,0,0,1,148.91013343235036,15.479558695066054)"><svg viewBox="0 0 395.52 81.0448099218118" height="81.0448099218118" width="395.52"><g id="SvgjsG1469"><svg viewBox="0 0 395.52 81.0448099218118" height="81.0448099218118" width="395.52" id="SvgjsSvg1468"><g><svg viewBox="0 0 395.52 81.0448099218118" height="81.0448099218118" width="395.52"><g transform="matrix(1,0,0,1,0,0)"><svg width="395.52" viewBox="1.15 -37.5 186.19 38" height="81.0448099218118" data-palette-color="url(#e2da2a94-a266-4347-8546-8e3777b1f4db)"><g class="wordmark-text-0" data-fill-palette-color="primary" id="SvgjsG1467"></g></svg></g></svg></g></svg></g></svg></g><g><svg viewBox="0 0 103.33595974115424 112.00392731194391" height="112.00392731194391" width="103.33595974115424"><g><svg xmlns="http://www.w3.org/2000/svg" xmlns:xlink="http://www.w3.org/1999/xlink" version="1.1" x="0" y="0" viewBox="0.00010711665728526006 0.00002196566346038785 83.0348928833427 89.99997803433654" enable-background="new 0 0 83.035 90" xml:space="preserve" width="103.33595974115424" height="112.00392731194391" class="icon-icon-0" data-fill-palette-color="accent" id="SvgjsSvg1466"><path d="M81.874 43.388H2.832c-0.643 0-1.163 0.608-1.163 1.358v43.897c0 0.75 0.52 1.357 1.163 1.357h79.042c0.641 0 1.161-0.607 1.161-1.357V44.746C83.035 43.996 82.515 43.388 81.874 43.388zM65.285 73.613H19.924c-1.625 0-2.945-1.316-2.945-2.943 0-1.625 1.321-2.942 2.945-2.942h45.361c1.626 0 2.943 1.317 2.943 2.942C68.229 72.297 66.911 73.613 65.285 73.613zM65.285 59.416H19.924c-1.626 0-2.943-1.317-2.943-2.943s1.317-2.944 2.943-2.944h45.361c1.624 0 2.943 1.318 2.943 2.944S66.909 59.416 65.285 59.416zM81.874 27.707H2.832c-0.643 0-1.163 0.52-1.163 1.162v10.075c0 0.642 0.52 1.161 1.163 1.161h79.042c0.641 0 1.161-0.52 1.161-1.161V28.868C83.035 28.226 82.515 27.707 81.874 27.707zM8.495 38.943l10.073-10.075h14.248L22.743 38.943H8.495zM30.81 38.943l10.075-10.075H55.13L45.056 38.943H30.81zM54.519 38.943l10.075-10.075H78.84L68.767 38.943H54.519zM80.147 0.961c-0.11-0.632-0.714-1.055-1.346-0.943L0.961 13.743c-0.631 0.111-1.052 0.715-0.944 1.346l1.751 9.921c0.112 0.632 0.714 1.055 1.347 0.944l77.839-13.726c0.631-0.112 1.054-0.715 0.944-1.347L80.147 0.961zM2.912 24.809l5.578-0.983 8.171-11.67L38.467 8.31l-7.775 1.371-8.172 11.67 7.945-1.402L38.636 8.28l37.38-6.591-8.171 11.67 12.906-2.275L2.912 24.809zM44.494 17.476l9.32-1.643 8.171-11.67-9.318 1.644L44.494 17.476z" fill="white"></path></svg></g></svg></g></svg></g></svg></g><defs><mask></mask></defs><mask><g id="SvgjsG1465"><svg viewBox="0 0 395.52 81.36910617186594" height="81.36910617186594" width="395.52"><g><svg viewBox="0 0 395.52 81.36910617186594" height="81.36910617186594" width="395.52"><g><svg viewBox="0 0 544.4301334323503 112.00392731194391" height="81.36910617186594" width="395.52"><g><rect width="7.308704596992828" height="81.45003397142085" x="122.46869428825589" y="15.27694667026153" fill="black" opacity="1" stroke-width="0" stroke="transparent" fill-opacity="1" class="rect-qz-0" rx="1%" id="SvgjsRect1464" data-palette-color="url(#e2da2a94-a266-4347-8546-8e3777b1f4db)"></rect></g><g transform="matrix(1,0,0,1,148.91013343235036,15.479558695066054)"><svg viewBox="0 0 395.52 81.0448099218118" height="81.0448099218118" width="395.52"><g id="SvgjsG1463"><svg viewBox="0 0 395.52 81.0448099218118" height="81.0448099218118" width="395.52" id="SvgjsSvg1462"><g><svg viewBox="0 0 395.52 81.0448099218118" height="81.0448099218118" width="395.52"><g transform="matrix(1,0,0,1,0,0)"><svg width="395.52" viewBox="1.15 -37.5 186.19 38" height="81.0448099218118" data-palette-color="url(#e2da2a94-a266-4347-8546-8e3777b1f4db)"><g class="wordmark-text-0" data-fill-palette-color="primary" id="SvgjsG1461"><path d="M29.2-19.65L29.2-19.65Q29.2-9.95 24.98-4.73 20.75 0.5 13.25 0.5L13.25 0.5Q8 0.5 5.03-1.5 2.05-3.5 2.05-6.7L2.05-6.7Q2.05-8.7 3.28-10.18 4.5-11.65 6.53-11.65 8.55-11.65 9.73-10.58 10.9-9.5 10.9-8.03 10.9-6.55 10.5-5.45L10.5-5.45 9-5.45Q8.65-4.7 8.65-3.53 8.65-2.35 9.73-1.43 10.8-0.5 12.9-0.5L12.9-0.5Q16.25-0.5 17.78-4.15 19.3-7.8 19.35-16.85L19.35-16.85Q16.75-12.8 11.45-12.8L11.45-12.8Q6.95-12.8 4.05-15.7 1.15-18.6 1.15-23.65L1.15-23.65Q1.15-29.65 5.13-32.6 9.1-35.55 15.3-35.55L15.3-35.55Q29.2-35.55 29.2-19.65ZM14.35-14.45Q16.05-14.45 17.23-15.73 18.4-17 18.82-18.73 19.25-20.45 19.25-23.23 19.25-26 19.23-27.08 19.2-28.15 19.1-29.63 19-31.1 18.75-31.78 18.5-32.45 18.1-33.2L18.1-33.2Q17.35-34.5 15.35-34.5L15.35-34.5Q13.1-34.5 12-32.7L12-32.7Q11.15-31.25 11-27.7L11-27.7Q10.95-26.45 10.95-24.33 10.95-22.2 10.98-21.05 11-19.9 11.1-18.63 11.2-17.35 11.43-16.7 11.65-16.05 12-15.45L12-15.45Q12.65-14.45 14.35-14.45ZM33.05 0.5L32.45 0.5 32.45-8.45 33.05-8.45Q34.35-4.1 36.55-2.35 38.75-0.6 42.05-0.6L42.05-0.6Q47.15-0.6 47.15-3.85L47.15-3.85Q47.15-5.25 45.9-5.95L45.9-5.95Q43.95-7.05 40.9-7.65L40.9-7.65Q37.5-8.55 35.2-10.05L35.2-10.05Q32.45-11.85 32.45-15.75 32.45-19.65 34.85-21.98 37.25-24.3 41.25-24.3L41.25-24.3Q43.7-24.3 46.3-23.15L46.3-23.15Q47.25-22.75 47.75-22.75 48.25-22.75 48.6-23.1 48.95-23.45 49.45-24.4L49.45-24.4 50-24.4 50-16.75 49.4-16.75Q46.85-23.25 41.5-23.25L41.5-23.25Q39.15-23.25 38-22.43 36.85-21.6 36.85-20.35L36.85-20.35Q36.85-19.6 37.2-19.18 37.55-18.75 37.75-18.55 37.95-18.35 38.4-18.13 38.85-17.9 39.15-17.78 39.45-17.65 40.07-17.45 40.7-17.25 41-17.2L41-17.2Q44.4-16.35 45.9-15.73 47.4-15.1 48.75-14.2L48.75-14.2Q51.5-12.3 51.5-8.08 51.5-3.85 49-1.68 46.5 0.5 42.15 0.5L42.15 0.5Q39.05 0.5 36.15-0.95L36.15-0.95Q35.55-1.35 35.2-1.35L35.2-1.35Q34.1-1.35 33.05 0.5L33.05 0.5ZM66.15 0.5Q59.7 0.5 56.47-2.83 53.25-6.15 53.25-12.08 53.25-18 56.87-21.15 60.5-24.3 66.09-24.3L66.09-24.3Q77.45-24.3 77-12.9L77-12.9 62.9-12.9 62.9-10.95Q62.9-6.05 64.15-3.55 65.4-1.05 68.5-1.05L68.5-1.05Q74.3-1.05 76.09-7.25L76.09-7.25 77-7.1Q76.05-3.5 73.57-1.5 71.09 0.5 66.15 0.5L66.15 0.5ZM62.95-16.35L62.95-13.9 68.09-13.9 68.09-16.35Q68.09-20.4 67.62-21.88 67.15-23.35 65.72-23.35 64.3-23.35 63.62-21.78 62.95-20.2 62.95-16.35L62.95-16.35ZM97.04-13.45Q97.04-18.6 96.54-20.38 96.04-22.15 94.59-22.15 93.14-22.15 91.99-20.35 90.84-18.55 90.84-15.4L90.84-15.4 90.84-6.1Q90.84-3.95 91.72-2.45 92.59-0.95 94.22-0.95 95.84-0.95 96.44-3.15 97.04-5.35 97.04-10.85L97.04-10.85 97.04-13.45ZM78.79-37.5L90.84-37.5 90.84-20Q92.74-24.3 97.34-24.3L97.34-24.3Q106.69-24.3 106.69-11.85L106.69-11.85Q106.69-5.5 104.12-2.5 101.54 0.5 96.39 0.5L96.39 0.5Q93.79 0.5 92.42-0.3 91.04-1.1 90.54-2.95L90.54-2.95 90.19 0 78.79 0 78.79-0.9 81.54-0.9 81.54-36.6 78.79-36.6 78.79-37.5ZM120.19-11.75L120.19-11.75 121.64-11.75 121.64-15.6Q121.64-20.35 121.12-21.98 120.59-23.6 119.09-23.6L119.09-23.6Q118.19-23.6 117.47-23.13 116.74-22.65 116.74-21.83 116.74-21 117.04-20.15L117.04-20.15 118.29-20.15Q118.69-19.1 118.69-17.63 118.69-16.15 117.44-15.08 116.19-14 114.29-14L114.29-14Q109.99-14 109.99-18.15L109.99-18.15Q109.99-24.3 120.44-24.3L120.44-24.3Q126.39-24.3 128.67-22.28 130.94-20.25 130.94-14.85L130.94-14.85 130.94-4.7Q130.94-2.1 132.39-2.1L132.39-2.1Q134.09-2.1 134.39-7.25L134.39-7.25 135.14-7.2Q134.94-2.8 133.49-1.15 132.04 0.5 128.74 0.5L128.74 0.5Q122.74 0.5 121.84-3.2L121.84-3.2Q121.19-1.3 119.89-0.4 118.59 0.5 116.09 0.5L116.09 0.5Q108.69 0.5 108.69-5.55L108.69-5.55Q108.69-9.1 111.52-10.43 114.34-11.75 120.19-11.75ZM118.19-5.6Q118.19-3 118.47-2.25 118.74-1.5 119.52-1.5 120.29-1.5 120.97-2.78 121.64-4.05 121.64-6.3L121.64-6.3 121.64-10.95 121.29-10.95Q118.19-10.95 118.19-6.4L118.19-6.4 118.19-5.6ZM152.34-22.4L152.34-22.4Q150.49-22.4 149.09-20 147.69-17.6 147.69-14.3L147.69-14.3 147.69-0.9 151.24-0.9 151.24 0 135.64 0 135.64-0.9 138.39-0.9 138.39-22.9 135.64-22.9 135.64-23.8 147.69-23.8 147.69-19Q148.34-21.55 150.19-22.93 152.04-24.3 154.39-24.3 156.74-24.3 158.21-22.98 159.69-21.65 159.69-19.23 159.69-16.8 158.59-15.5 157.49-14.2 155.21-14.2 152.94-14.2 151.86-15.7 150.79-17.2 151.59-19.85L151.59-19.85 153.39-19.85Q154.64-22.4 152.34-22.4ZM172.39-11.75L172.39-11.75 173.84-11.75 173.84-15.6Q173.84-20.35 173.31-21.98 172.79-23.6 171.29-23.6L171.29-23.6Q170.39-23.6 169.66-23.13 168.94-22.65 168.94-21.83 168.94-21 169.24-20.15L169.24-20.15 170.49-20.15Q170.89-19.1 170.89-17.63 170.89-16.15 169.64-15.08 168.39-14 166.49-14L166.49-14Q162.19-14 162.19-18.15L162.19-18.15Q162.19-24.3 172.64-24.3L172.64-24.3Q178.59-24.3 180.86-22.28 183.14-20.25 183.14-14.85L183.14-14.85 183.14-4.7Q183.14-2.1 184.59-2.1L184.59-2.1Q186.29-2.1 186.59-7.25L186.59-7.25 187.34-7.2Q187.14-2.8 185.69-1.15 184.24 0.5 180.94 0.5L180.94 0.5Q174.94 0.5 174.04-3.2L174.04-3.2Q173.39-1.3 172.09-0.4 170.79 0.5 168.29 0.5L168.29 0.5Q160.89 0.5 160.89-5.55L160.89-5.55Q160.89-9.1 163.71-10.43 166.54-11.75 172.39-11.75ZM170.39-5.6Q170.39-3 170.66-2.25 170.94-1.5 171.71-1.5 172.49-1.5 173.16-2.78 173.84-4.05 173.84-6.3L173.84-6.3 173.84-10.95 173.49-10.95Q170.39-10.95 170.39-6.4L170.39-6.4 170.39-5.6Z" fill="black"></path></g></svg></g></svg></g></svg></g></svg></g><g><svg viewBox="0 0 103.33595974115424 112.00392731194391" height="112.00392731194391" width="103.33595974115424"><g><svg xmlns="http://www.w3.org/2000/svg" xmlns:xlink="http://www.w3.org/1999/xlink" version="1.1" x="0" y="0" viewBox="0.00010711665728526006 0.00002196566346038785 83.0348928833427 89.99997803433654" enable-background="new 0 0 83.035 90" xml:space="preserve" width="103.33595974115424" height="112.00392731194391" class="icon-icon-0" data-fill-palette-color="accent" id="SvgjsSvg1460"><path d="M81.874 43.388H2.832c-0.643 0-1.163 0.608-1.163 1.358v43.897c0 0.75 0.52 1.357 1.163 1.357h79.042c0.641 0 1.161-0.607 1.161-1.357V44.746C83.035 43.996 82.515 43.388 81.874 43.388zM65.285 73.613H19.924c-1.625 0-2.945-1.316-2.945-2.943 0-1.625 1.321-2.942 2.945-2.942h45.361c1.626 0 2.943 1.317 2.943 2.942C68.229 72.297 66.911 73.613 65.285 73.613zM65.285 59.416H19.924c-1.626 0-2.943-1.317-2.943-2.943s1.317-2.944 2.943-2.944h45.361c1.624 0 2.943 1.318 2.943 2.944S66.909 59.416 65.285 59.416zM81.874 27.707H2.832c-0.643 0-1.163 0.52-1.163 1.162v10.075c0 0.642 0.52 1.161 1.163 1.161h79.042c0.641 0 1.161-0.52 1.161-1.161V28.868C83.035 28.226 82.515 27.707 81.874 27.707zM8.495 38.943l10.073-10.075h14.248L22.743 38.943H8.495zM30.81 38.943l10.075-10.075H55.13L45.056 38.943H30.81zM54.519 38.943l10.075-10.075H78.84L68.767 38.943H54.519zM80.147 0.961c-0.11-0.632-0.714-1.055-1.346-0.943L0.961 13.743c-0.631 0.111-1.052 0.715-0.944 1.346l1.751 9.921c0.112 0.632 0.714 1.055 1.347 0.944l77.839-13.726c0.631-0.112 1.054-0.715 0.944-1.347L80.147 0.961zM2.912 24.809l5.578-0.983 8.171-11.67L38.467 8.31l-7.775 1.371-8.172 11.67 7.945-1.402L38.636 8.28l37.38-6.591-8.171 11.67 12.906-2.275L2.912 24.809zM44.494 17.476l9.32-1.643 8.171-11.67-9.318 1.644L44.494 17.476z" fill="black"></path></svg></g></svg></g></svg></g></svg></g><defs><mask></mask></defs></svg><rect width="395.52" height="81.36910617186594" fill="black" stroke="none" visibility="hidden"></rect></g></mask></svg><rect width="395.52" height="81.36910617186594" fill="black" stroke="none" visibility="hidden"></rect></g></mask><linearGradient x1="0" x2="1" y1="0.578" y2="0.595" id="7d9aaf56-fb4f-46ce-aea0-f101e62adc59"><stop stop-color="#6ee2f5" offset="0"></stop><stop stop-color="#6454f0" offset="1"></stop></linearGradient><rect width="395.52" height="81.36910617186594" fill="url(#7d9aaf56-fb4f-46ce-aea0-f101e62adc59)" mask="url(#07dac723-17e1-4387-8f3b-7e0e82579cc3)" data-fill-palette-color="accent"></rect></svg><rect width="395.52" height="81.36910617186594" fill="none" stroke="none" visibility="hidden"></rect></g></svg></g></svg>